<?xml version="1.0" encoding="UTF-8" standalone="no"?>
<svg width="86px" height="86px" viewBox="0 0 86 86" version="1.1" xmlns="http://www.w3.org/2000/svg" xmlns:xlink="http://www.w3.org/1999/xlink">
    <g id="X" stroke="none" stroke-width="1" fill="none" fill-rule="evenodd">
        <path d="M38.1612947,42.2964782 L0.90875593,5.04393944 L0.704407693,2.16962882 C0.626076373,1.06784029 1.45575238,0.111164118 2.55754092,0.0328327983 C2.64613017,0.0265345726 2.73504057,0.0261442315 2.8236817,0.0316643671 L5.73945117,0.213244201 L42.9919899,37.465783 L80.2445287,0.213244201 L83.1188393,0.00889596502 C84.2206278,-0.0694353549 85.177304,0.76024065 85.2556353,1.86202919 C85.2619335,1.95061844 85.2623239,2.03952884 85.2568037,2.12816997 L85.0752239,5.04393944 L47.8226852,42.2964782 L85.7909723,80.2647653 L85.9914007,83.1462881 C86.0680454,84.2481953 85.236906,85.2036004 84.1349989,85.2802451 C84.0464129,85.2864068 83.957515,85.2866619 83.8688952,85.2810086 L80.9602771,85.0954606 L42.9919899,47.1271734 L5.02370277,85.0954606 L2.14217997,85.295889 C1.04027282,85.3725337 0.0848677623,84.5413943 0.00822304723,83.4394871 C0.00206132773,83.3509012 0.00180626078,83.2620033 0.00745953969,83.1733834 L0.193007524,80.2647653 L38.1612947,42.2964782 Z" id="Combined-Shape" fill="#A554F6"></path>
    </g>
</svg>
